<?xml version="1.0" encoding="utf-8"?>
<!-- Generator: Adobe Illustrator 24.1.2, SVG Export Plug-In . SVG Version: 6.00 Build 0)  -->
<svg version="1.1" id="Layer_1" xmlns="http://www.w3.org/2000/svg" xmlns:xlink="http://www.w3.org/1999/xlink" x="0px" y="0px"
	 viewBox="0 0 425.2 300.6" style="enable-background:new 0 0 425.2 300.6;" xml:space="preserve">
<style type="text/css">
	.st0{fill:#FFFFFF;stroke:#000000;stroke-width:4;stroke-linecap:round;stroke-linejoin:round;stroke-miterlimit:10;}
	.st1{fill:#FFFFFF;}
	.st2{stroke:#000000;stroke-width:4;stroke-linecap:round;stroke-linejoin:round;stroke-miterlimit:10;}
	.st3{fill:none;}
	.st4{font-family:'Inconsolata-Regular';}
	.st5{font-size:15.1827px;}
</style>
<path class="st0" d="M98.4,250.2V141c0-10.2,8.2-18.4,18.4-18.4s18.4,8.2,18.4,18.4c0-10.2,8.2-18.4,18.4-18.4
	c10.2,0,18.4,8.2,18.4,18.4c0-10.2,8.2-18.4,18.4-18.4c10.2,0,18.4,8.2,18.4,18.4c0-10.2,8.2-18.4,18.4-18.4
	c10.2,0,18.4,8.2,18.4,18.4c0-10.2,8.2-18.4,18.4-18.4c10.2,0,18.4,8.2,18.4,18.4c0-10.2,8.2-18.4,18.4-18.4S319,130.8,319,141
	v109.2"/>
<g>
	<path class="st1" d="M208.7,80.4c-15,0-27.2-12.2-27.2-27.2c0-15,12.2-27.2,27.2-27.2c15,0,27.2,12.2,27.2,27.2
		C235.9,68.2,223.7,80.4,208.7,80.4z"/>
	<path d="M208.7,28c13.9,0,25.2,11.3,25.2,25.2s-11.3,25.2-25.2,25.2S183.5,67,183.5,53.2S194.8,28,208.7,28 M208.7,24
		c-16.1,0-29.2,13.1-29.2,29.2s13.1,29.2,29.2,29.2s29.2-13.1,29.2-29.2S224.8,24,208.7,24L208.7,24z"/>
</g>
<path d="M237.9,53.2c0,16.1-13.1,29.2-29.2,29.2s-29.2-13.1-29.2-29.2"/>
<rect x="41.4" y="250.2" class="st2" width="57" height="20.8"/>
<rect x="319" y="250.2" class="st2" width="57" height="20.8"/>
<rect x="44.5" y="255.1" class="st3" width="50.8" height="31.9"/>
<text transform="matrix(1 0 0 1 50.9124 265.1912)" class="st1 st4 st5">+ / -</text>
<rect x="322.1" y="255.1" class="st3" width="50.8" height="31.9"/>
<text transform="matrix(1 0 0 1 328.5653 265.1912)" class="st1 st4 st5">+ / -</text>
<rect x="241.4" y="46.8" class="st3" width="134.6" height="21.1"/>
<text transform="matrix(1 0 0 1 277.3789 56.9089)" class="st4 st5">MAGNETIC BEAD</text>
<rect x="324.6" y="136.1" class="st3" width="51.5" height="21.1"/>
<text transform="matrix(1 0 0 1 345.7012 146.1541)" class="st4 st5">COIL</text>
</svg>
